<mxfile host="app.diagrams.net" modified="2023-11-23T17:40:15.094Z" agent="Mozilla/5.0 (Windows NT 10.0; Win64; x64) AppleWebKit/537.36 (KHTML, like Gecko) Chrome/119.0.0.0 Safari/537.36" etag="5-4_cVvYdASbbozl2B1L" version="22.1.3" type="device">
  <diagram id="C5RBs43oDa-KdzZeNtuy" name="Page-1">
    <mxGraphModel dx="1591" dy="758" grid="1" gridSize="10" guides="1" tooltips="1" connect="1" arrows="1" fold="1" page="1" pageScale="1" pageWidth="827" pageHeight="1169" math="0" shadow="0">
      <root>
        <mxCell id="WIyWlLk6GJQsqaUBKTNV-0" />
        <mxCell id="WIyWlLk6GJQsqaUBKTNV-1" parent="WIyWlLk6GJQsqaUBKTNV-0" />
        <mxCell id="zkfFHV4jXpPFQw0GAbJ--6" value="Course" style="swimlane;fontStyle=1;align=center;verticalAlign=top;childLayout=stackLayout;horizontal=1;startSize=26;horizontalStack=0;resizeParent=1;resizeLast=0;collapsible=1;marginBottom=0;rounded=0;shadow=0;strokeWidth=1;" parent="WIyWlLk6GJQsqaUBKTNV-1" vertex="1">
          <mxGeometry x="470" y="110" width="290" height="450" as="geometry">
            <mxRectangle x="130" y="380" width="160" height="26" as="alternateBounds" />
          </mxGeometry>
        </mxCell>
        <mxCell id="zkfFHV4jXpPFQw0GAbJ--7" value="-courseName" style="text;align=left;verticalAlign=top;spacingLeft=4;spacingRight=4;overflow=hidden;rotatable=0;points=[[0,0.5],[1,0.5]];portConstraint=eastwest;" parent="zkfFHV4jXpPFQw0GAbJ--6" vertex="1">
          <mxGeometry y="26" width="290" height="26" as="geometry" />
        </mxCell>
        <mxCell id="xnlnBT_x-X7CwF9AxFTN-16" value="&lt;span style=&quot;color: rgb(0, 0, 0); font-family: Helvetica; font-size: 12px; font-style: normal; font-variant-ligatures: normal; font-variant-caps: normal; font-weight: 400; letter-spacing: normal; orphans: 2; text-align: left; text-indent: 0px; text-transform: none; widows: 2; word-spacing: 0px; -webkit-text-stroke-width: 0px; background-color: rgb(251, 251, 251); text-decoration-thickness: initial; text-decoration-style: initial; text-decoration-color: initial; float: none; display: inline !important;&quot;&gt;-professorName: String&lt;/span&gt;" style="text;whiteSpace=wrap;html=1;fontSize=16;" parent="zkfFHV4jXpPFQw0GAbJ--6" vertex="1">
          <mxGeometry y="52" width="290" height="28" as="geometry" />
        </mxCell>
        <mxCell id="xnlnBT_x-X7CwF9AxFTN-17" value="-courseSection: String" style="text;align=left;verticalAlign=top;spacingLeft=4;spacingRight=4;overflow=hidden;rotatable=0;points=[[0,0.5],[1,0.5]];portConstraint=eastwest;rounded=0;shadow=0;html=0;" parent="zkfFHV4jXpPFQw0GAbJ--6" vertex="1">
          <mxGeometry y="80" width="290" height="26" as="geometry" />
        </mxCell>
        <mxCell id="xnlnBT_x-X7CwF9AxFTN-18" value="-emailAddress:String" style="text;align=left;verticalAlign=top;spacingLeft=4;spacingRight=4;overflow=hidden;rotatable=0;points=[[0,0.5],[1,0.5]];portConstraint=eastwest;rounded=0;shadow=0;html=0;" parent="zkfFHV4jXpPFQw0GAbJ--6" vertex="1">
          <mxGeometry y="106" width="290" height="34" as="geometry" />
        </mxCell>
        <mxCell id="xnlnBT_x-X7CwF9AxFTN-20" value="-courseHours:Int" style="text;align=left;verticalAlign=top;spacingLeft=4;spacingRight=4;overflow=hidden;rotatable=0;points=[[0,0.5],[1,0.5]];portConstraint=eastwest;rounded=0;shadow=0;html=0;" parent="zkfFHV4jXpPFQw0GAbJ--6" vertex="1">
          <mxGeometry y="140" width="290" height="34" as="geometry" />
        </mxCell>
        <mxCell id="YGvMYumbz9hbe24Fkuck-0" value="-grade:Int" style="text;align=left;verticalAlign=top;spacingLeft=4;spacingRight=4;overflow=hidden;rotatable=0;points=[[0,0.5],[1,0.5]];portConstraint=eastwest;rounded=0;shadow=0;html=0;" vertex="1" parent="zkfFHV4jXpPFQw0GAbJ--6">
          <mxGeometry y="174" width="290" height="34" as="geometry" />
        </mxCell>
        <mxCell id="zkfFHV4jXpPFQw0GAbJ--9" value="" style="line;html=1;strokeWidth=1;align=left;verticalAlign=middle;spacingTop=-1;spacingLeft=3;spacingRight=3;rotatable=0;labelPosition=right;points=[];portConstraint=eastwest;" parent="zkfFHV4jXpPFQw0GAbJ--6" vertex="1">
          <mxGeometry y="208" width="290" height="20" as="geometry" />
        </mxCell>
        <mxCell id="UmEUGUy4e9WlWRHkxh7I-6" value="+addCourse(Course):void" style="text;align=left;verticalAlign=top;spacingLeft=4;spacingRight=4;overflow=hidden;rotatable=0;points=[[0,0.5],[1,0.5]];portConstraint=eastwest;" parent="zkfFHV4jXpPFQw0GAbJ--6" vertex="1">
          <mxGeometry y="228" width="290" height="32" as="geometry" />
        </mxCell>
        <mxCell id="UmEUGUy4e9WlWRHkxh7I-7" value="+deleteCourse(String):boolean" style="text;align=left;verticalAlign=top;spacingLeft=4;spacingRight=4;overflow=hidden;rotatable=0;points=[[0,0.5],[1,0.5]];portConstraint=eastwest;" parent="zkfFHV4jXpPFQw0GAbJ--6" vertex="1">
          <mxGeometry y="260" width="290" height="32" as="geometry" />
        </mxCell>
        <mxCell id="UmEUGUy4e9WlWRHkxh7I-8" value="+updateCourse(String, Course):boolean&#xa;&#xa;" style="text;align=left;verticalAlign=top;spacingLeft=4;spacingRight=4;overflow=hidden;rotatable=0;points=[[0,0.5],[1,0.5]];portConstraint=eastwest;" parent="zkfFHV4jXpPFQw0GAbJ--6" vertex="1">
          <mxGeometry y="292" width="290" height="32" as="geometry" />
        </mxCell>
        <mxCell id="UmEUGUy4e9WlWRHkxh7I-9" value="+getCourses():ArrayList&lt;Course&gt;" style="text;align=left;verticalAlign=top;spacingLeft=4;spacingRight=4;overflow=hidden;rotatable=0;points=[[0,0.5],[1,0.5]];portConstraint=eastwest;" parent="zkfFHV4jXpPFQw0GAbJ--6" vertex="1">
          <mxGeometry y="324" width="290" height="32" as="geometry" />
        </mxCell>
        <mxCell id="xnlnBT_x-X7CwF9AxFTN-3" value="Student" style="swimlane;fontStyle=2;align=center;verticalAlign=top;childLayout=stackLayout;horizontal=1;startSize=26;horizontalStack=0;resizeParent=1;resizeLast=0;collapsible=1;marginBottom=0;rounded=0;shadow=0;strokeWidth=1;" parent="WIyWlLk6GJQsqaUBKTNV-1" vertex="1">
          <mxGeometry x="60" y="110" width="340" height="448" as="geometry">
            <mxRectangle x="60" y="110" width="160" height="26" as="alternateBounds" />
          </mxGeometry>
        </mxCell>
        <mxCell id="xnlnBT_x-X7CwF9AxFTN-4" value="-name:String" style="text;align=left;verticalAlign=top;spacingLeft=4;spacingRight=4;overflow=hidden;rotatable=0;points=[[0,0.5],[1,0.5]];portConstraint=eastwest;" parent="xnlnBT_x-X7CwF9AxFTN-3" vertex="1">
          <mxGeometry y="26" width="340" height="26" as="geometry" />
        </mxCell>
        <mxCell id="xnlnBT_x-X7CwF9AxFTN-5" value="-studentNumber:String" style="text;align=left;verticalAlign=top;spacingLeft=4;spacingRight=4;overflow=hidden;rotatable=0;points=[[0,0.5],[1,0.5]];portConstraint=eastwest;rounded=0;shadow=0;html=0;" parent="xnlnBT_x-X7CwF9AxFTN-3" vertex="1">
          <mxGeometry y="52" width="340" height="26" as="geometry" />
        </mxCell>
        <mxCell id="xnlnBT_x-X7CwF9AxFTN-6" value="-course: ArrayList&lt;Course&gt;" style="text;align=left;verticalAlign=top;spacingLeft=4;spacingRight=4;overflow=hidden;rotatable=0;points=[[0,0.5],[1,0.5]];portConstraint=eastwest;rounded=0;shadow=0;html=0;" parent="xnlnBT_x-X7CwF9AxFTN-3" vertex="1">
          <mxGeometry y="78" width="340" height="26" as="geometry" />
        </mxCell>
        <mxCell id="xnlnBT_x-X7CwF9AxFTN-7" value="-courseHours: Int" style="text;align=left;verticalAlign=top;spacingLeft=4;spacingRight=4;overflow=hidden;rotatable=0;points=[[0,0.5],[1,0.5]];portConstraint=eastwest;rounded=0;shadow=0;html=0;" parent="xnlnBT_x-X7CwF9AxFTN-3" vertex="1">
          <mxGeometry y="104" width="340" height="26" as="geometry" />
        </mxCell>
        <mxCell id="xnlnBT_x-X7CwF9AxFTN-9" value="-emailAddress: String" style="text;align=left;verticalAlign=top;spacingLeft=4;spacingRight=4;overflow=hidden;rotatable=0;points=[[0,0.5],[1,0.5]];portConstraint=eastwest;rounded=0;shadow=0;html=0;" parent="xnlnBT_x-X7CwF9AxFTN-3" vertex="1">
          <mxGeometry y="130" width="340" height="34" as="geometry" />
        </mxCell>
        <mxCell id="xnlnBT_x-X7CwF9AxFTN-10" value="" style="line;html=1;strokeWidth=1;align=left;verticalAlign=middle;spacingTop=-1;spacingLeft=3;spacingRight=3;rotatable=0;labelPosition=right;points=[];portConstraint=eastwest;" parent="xnlnBT_x-X7CwF9AxFTN-3" vertex="1">
          <mxGeometry y="164" width="340" height="8" as="geometry" />
        </mxCell>
        <mxCell id="YGvMYumbz9hbe24Fkuck-1" value="+addStudent(Student):void" style="text;align=left;verticalAlign=top;spacingLeft=4;spacingRight=4;overflow=hidden;rotatable=0;points=[[0,0.5],[1,0.5]];portConstraint=eastwest;" vertex="1" parent="xnlnBT_x-X7CwF9AxFTN-3">
          <mxGeometry y="172" width="340" height="32" as="geometry" />
        </mxCell>
        <mxCell id="UmEUGUy4e9WlWRHkxh7I-0" value="+addStudent(Student):void" style="text;align=left;verticalAlign=top;spacingLeft=4;spacingRight=4;overflow=hidden;rotatable=0;points=[[0,0.5],[1,0.5]];portConstraint=eastwest;" parent="xnlnBT_x-X7CwF9AxFTN-3" vertex="1">
          <mxGeometry y="204" width="340" height="32" as="geometry" />
        </mxCell>
        <mxCell id="UmEUGUy4e9WlWRHkxh7I-1" value="+deleteStudent(String):boolean" style="text;align=left;verticalAlign=top;spacingLeft=4;spacingRight=4;overflow=hidden;rotatable=0;points=[[0,0.5],[1,0.5]];portConstraint=eastwest;" parent="xnlnBT_x-X7CwF9AxFTN-3" vertex="1">
          <mxGeometry y="236" width="340" height="32" as="geometry" />
        </mxCell>
        <mxCell id="UmEUGUy4e9WlWRHkxh7I-2" value="+updateStudent(String, Student):boolean&#xa;&#xa;" style="text;align=left;verticalAlign=top;spacingLeft=4;spacingRight=4;overflow=hidden;rotatable=0;points=[[0,0.5],[1,0.5]];portConstraint=eastwest;" parent="xnlnBT_x-X7CwF9AxFTN-3" vertex="1">
          <mxGeometry y="268" width="340" height="32" as="geometry" />
        </mxCell>
        <mxCell id="UmEUGUy4e9WlWRHkxh7I-3" value="+getStudent():ArrayList&lt;Student&gt;" style="text;align=left;verticalAlign=top;spacingLeft=4;spacingRight=4;overflow=hidden;rotatable=0;points=[[0,0.5],[1,0.5]];portConstraint=eastwest;" parent="xnlnBT_x-X7CwF9AxFTN-3" vertex="1">
          <mxGeometry y="300" width="340" height="32" as="geometry" />
        </mxCell>
        <mxCell id="xnlnBT_x-X7CwF9AxFTN-12" value="+addCoursesToStudentsPage(): ArrayList&lt;Course&gt;" style="text;align=left;verticalAlign=top;spacingLeft=4;spacingRight=4;overflow=hidden;rotatable=0;points=[[0,0.5],[1,0.5]];portConstraint=eastwest;" parent="xnlnBT_x-X7CwF9AxFTN-3" vertex="1">
          <mxGeometry y="332" width="340" height="32" as="geometry" />
        </mxCell>
        <mxCell id="xnlnBT_x-X7CwF9AxFTN-11" value="+addCourseToStudent(String,String): boolean" style="text;align=left;verticalAlign=top;spacingLeft=4;spacingRight=4;overflow=hidden;rotatable=0;points=[[0,0.5],[1,0.5]];portConstraint=eastwest;" parent="xnlnBT_x-X7CwF9AxFTN-3" vertex="1">
          <mxGeometry y="364" width="340" height="32" as="geometry" />
        </mxCell>
        <mxCell id="xnlnBT_x-X7CwF9AxFTN-19" value="+deleteStudentCourse(String,String):boolean" style="text;align=left;verticalAlign=top;spacingLeft=4;spacingRight=4;overflow=hidden;rotatable=0;points=[[0,0.5],[1,0.5]];portConstraint=eastwest;" parent="xnlnBT_x-X7CwF9AxFTN-3" vertex="1">
          <mxGeometry y="396" width="340" height="26" as="geometry" />
        </mxCell>
        <mxCell id="UmEUGUy4e9WlWRHkxh7I-5" value="+assignMarkToStudent(String,String,Int):boolean" style="text;align=left;verticalAlign=top;spacingLeft=4;spacingRight=4;overflow=hidden;rotatable=0;points=[[0,0.5],[1,0.5]];portConstraint=eastwest;" parent="xnlnBT_x-X7CwF9AxFTN-3" vertex="1">
          <mxGeometry y="422" width="340" height="26" as="geometry" />
        </mxCell>
      </root>
    </mxGraphModel>
  </diagram>
</mxfile>
